HIERARCHY
ROOT hip
{
  OFFSET 0 0 0
  CHANNELS 6 Xposition Yposition Zposition Zrotation Yrotation Xrotation
  JOINT abdomen
  {
    OFFSET 0 20.6881 -0.73152
    CHANNELS 3 Zrotation Xrotation Yrotation
    JOINT chest
    {
      OFFSET 0 11.7043 -0.48768
      CHANNELS 3 Zrotation Xrotation Yrotation
      JOINT neck
      {
        OFFSET 0 22.1894 -2.19456
        CHANNELS 3 Zrotation Xrotation Yrotation
        JOINT head
        {
          OFFSET -0.24384 7.07133 1.2192
          CHANNELS 3 Zrotation Xrotation Yrotation
          JOINT leftEye
          {
            OFFSET 4.14528 8.04674 8.04672
            CHANNELS 3 Zrotation Xrotation Yrotation
            End Site
            {
              OFFSET 1 0 0
            }
          }
          JOINT rightEye
          {
            OFFSET -3.6576 8.04674 8.04672
            CHANNELS 3 Zrotation Xrotation Yrotation
            End Site
            {
              OFFSET 1 0 0
            }
          }
        }
      }
      JOINT rCollar
      {
        OFFSET -2.68224 19.2634 -4.8768
        CHANNELS 3 Zrotation Xrotation Yrotation
        JOINT rShldr
        {
          OFFSET -8.77824 -1.95073 1.46304
          CHANNELS 3 Zrotation Xrotation Yrotation
          JOINT rForeArm
          {
            OFFSET -28.1742 -1.7115 0.48768
            CHANNELS 3 Zrotation Xrotation Yrotation
            JOINT rHand
            {
              OFFSET -22.5879 0.773209 7.07136
              CHANNELS 3 Zrotation Xrotation Yrotation
              JOINT rThumb1
              {
                OFFSET -1.2192 -0.487915 3.41376
                CHANNELS 3 Zrotation Xrotation Yrotation
                JOINT rThumb2
                {
                  OFFSET -3.37035 -0.52449 3.41376
                  CHANNELS 3 Zrotation Xrotation Yrotation
                  End Site
                  {
                    OFFSET -1.78271 -1.18214 1.43049
                  }
                }
              }
              JOINT rIndex1
              {
                OFFSET -7.75947 0.938293 5.60832
                CHANNELS 3 Zrotation Xrotation Yrotation
                JOINT rIndex2
                {
                  OFFSET -2.54057 -0.884171 1.56538
                  CHANNELS 3 Zrotation Xrotation Yrotation
                  End Site
                  {
                    OFFSET -1.62519 -0.234802 1.16502
                  }
                }
              }
              JOINT rMid1
              {
                OFFSET -8.24714 1.18213 3.41376
                CHANNELS 3 Zrotation Xrotation Yrotation
                JOINT rMid2
                {
                  OFFSET -3.10165 -0.590103 1.0647
                  CHANNELS 3 Zrotation Xrotation Yrotation
                  End Site
                  {
                    OFFSET -2.48547 -0.328903 0.83742
                  }
                }
              }
              JOINT rRing1
              {
                OFFSET -8.82822 0.546677 1.51678
                CHANNELS 3 Zrotation Xrotation Yrotation
                JOINT rRing2
                {
                  OFFSET -2.60934 -0.819778 -0.0198488
                  CHANNELS 3 Zrotation Xrotation Yrotation
                  End Site
                  {
                    OFFSET -2.33842 -0.294052 0.168128
                  }
                }
              }
              JOINT rPinky1
              {
                OFFSET -8.27202 -0.0477905 -0.4584
                CHANNELS 3 Zrotation Xrotation Yrotation
                JOINT rPinky2
                {
                  OFFSET -1.82734 -0.647385 -0.700984
                  CHANNELS 3 Zrotation Xrotation Yrotation
                  End Site
                  {
                    OFFSET -1.69225 -0.51767 -0.607171
                  }
                }
              }
            }
          }
        }
      }
      JOINT lCollar
      {
        OFFSET 2.68224 19.2634 -4.8768
        CHANNELS 3 Zrotation Xrotation Yrotation
        JOINT lShldr
        {
          OFFSET 8.77824 -1.95073 1.46304
          CHANNELS 3 Zrotation Xrotation Yrotation
          JOINT lForeArm
          {
            OFFSET 28.1742 -1.7115 0.48768
            CHANNELS 3 Zrotation Xrotation Yrotation
            JOINT lHand
            {
              OFFSET 22.5879 0.773209 7.07136
              CHANNELS 3 Zrotation Xrotation Yrotation
              JOINT lThumb1
              {
                OFFSET 1.2192 -0.487915 3.41376
                CHANNELS 3 Zrotation Xrotation Yrotation
                JOINT lThumb2
                {
                  OFFSET 3.37035 -0.52449 3.41376
                  CHANNELS 3 Zrotation Xrotation Yrotation
                  End Site
                  {
                    OFFSET 1.78271 -1.18214 1.43049
                  }
                }
              }
              JOINT lIndex1
              {
                OFFSET 7.75947 0.938293 5.60832
                CHANNELS 3 Zrotation Xrotation Yrotation
                JOINT lIndex2
                {
                  OFFSET 2.54057 -0.884171 1.56538
                  CHANNELS 3 Zrotation Xrotation Yrotation
                  End Site
                  {
                    OFFSET 1.62519 -0.234802 1.16502
                  }
                }
              }
              JOINT lMid1
              {
                OFFSET 8.24714 1.18213 3.41376
                CHANNELS 3 Zrotation Xrotation Yrotation
                JOINT lMid2
                {
                  OFFSET 3.10165 -0.590103 1.0647
                  CHANNELS 3 Zrotation Xrotation Yrotation
                  End Site
                  {
                    OFFSET 2.48547 -0.328903 0.83742
                  }
                }
              }
              JOINT lRing1
              {
                OFFSET 8.82822 0.546677 1.51678
                CHANNELS 3 Zrotation Xrotation Yrotation
                JOINT lRing2
                {
                  OFFSET 2.60934 -0.819778 -0.0198488
                  CHANNELS 3 Zrotation Xrotation Yrotation
                  End Site
                  {
                    OFFSET 2.33842 -0.294052 0.168128
                  }
                }
              }
              JOINT lPinky1
              {
                OFFSET 8.27202 -0.0477905 -0.4584
                CHANNELS 3 Zrotation Xrotation Yrotation
                JOINT lPinky2
                {
                  OFFSET 1.82734 -0.647385 -0.700984
                  CHANNELS 3 Zrotation Xrotation Yrotation
                  End Site
                  {
                    OFFSET 1.69225 -0.51767 -0.607171
                  }
                }
              }
            }
          }
        }
      }
    }
  }
  JOINT rButtock
  {
    OFFSET -8.77824 4.35084 1.2192
    CHANNELS 3 Zrotation Xrotation Yrotation
    JOINT rThigh
    {
      OFFSET 0 -1.70687 -2.19456
      CHANNELS 3 Zrotation Xrotation Yrotation
      JOINT rShin
      {
        OFFSET 0 -36.8199 0.73152
        CHANNELS 3 Zrotation Xrotation Yrotation
        JOINT rFoot
        {
          OFFSET 0.73152 -45.1104 -5.12064
          CHANNELS 3 Zrotation Xrotation Yrotation
          End Site
          {
            OFFSET -1.1221 -3.69964 12.103
          }
        }
      }
    }
  }
  JOINT lButtock
  {
    OFFSET 8.77824 4.35084 1.2192
    CHANNELS 3 Zrotation Xrotation Yrotation
    JOINT lThigh
    {
      OFFSET 0 -1.70687 -2.19456
      CHANNELS 3 Zrotation Xrotation Yrotation
      JOINT lShin
      {
        OFFSET 0 -36.8199 0.73152
        CHANNELS 3 Zrotation Xrotation Yrotation
        JOINT lFoot
        {
          OFFSET -0.73152 -45.1104 -5.12064
          CHANNELS 3 Zrotation Xrotation Yrotation
          End Site
          {
            OFFSET 1.1221 -3.69964 12.103
          }
        }
      }
    }
  }
}
MOTION
Frames:	9
Frame Time:	0.00833333
-170.249 85.4571 14.2242 0.0 0.0 0.0 1.92988 -0.00172182 0.0523824 0.53208 0.00507104 0.0921223 -2.38369e-14 -2.38542e-15 -4.96961e-17 -7.15563e-14 3.18055e-15 -4.96962e-17 -0.0 0.0 0.0 -0.0 0.0 0.0 -1.19784e-14 1.80537e-17 1.49089e-16 -2.47785e-13 -1.86361e-16 1.98785e-16 -4.29683e-12 1.29349e-12 2.54444e-14 -4.91141e-11 -1.21917e-12 -7.31528e-14 -1.15853e-10 1.69369e-13 -8.5875e-14 -2.00087e-10 2.98972e-13 -1.46306e-13 -1.15847e-10 1.7016e-13 -9.54166e-14 7.73091 5.47488 0.417314 -1.15853e-10 1.69066e-13 -8.26944e-14 2.90554 0.965183 0.102902 -1.15844e-10 1.69066e-13 -8.50798e-14 10.2786 0.731801 0.0259123 -1.15855e-10 1.7175e-13 -8.26944e-14 2.22167 -0.733487 -0.20892 -1.18766e-14 1.78596e-17 -9.93923e-17 -2.52897e-13 2.17421e-16 -1.59028e-15 -4.28863e-12 -1.27341e-12 6.04305e-14 -4.91062e-11 1.35407e-12 -9.85972e-14 -1.1582e-10 1.76949e-13 -7.31528e-14 -1.99999e-10 3.05333e-13 -1.21656e-13 -1.15827e-10 1.77713e-13 -6.99722e-14 -7.73091 5.47488 -0.417314 -1.15821e-10 1.76819e-13 -7.63333e-14 -2.90554 0.965183 -0.102902 -1.15822e-10 1.77018e-13 -7.4743e-14 -10.2786 0.731801 -0.0259123 -1.15814e-10 1.79701e-13 -8.26944e-14 -2.22167 -0.733487 0.20892 -2.03217e-16 0.0 -3.88251e-19 1.95944 -7.26116 -0.192014 0.00412092 7.58528 0.107065 -0.521249 -0.330669 0.0523239 2.03217e-16 0.0 3.88251e-19 0.976645 -1.92613 0.000870395 0.0089874 -2.0786 0.074065 0.487909 3.99809 -0.136742
-163.477 85.4748 5.95038 14.2529 84.8085 14.2647 0.905172 0.95226 0.760868 1.15025 0.301909 0.310382 0.725328 -1.57408 0.619678 -0.5004 -0.536104 0.969771 -0.0 0.0 0.0 -0.0 0.0 0.0 -3.85521e-15 -4.17491e-13 4.42296e-15 21.629 12.3503 1.65528 -4.20634 -1.90546 6.57273 0.00277534 1.16862 0.164115 -1.99622e-10 9.29127e-13 2.05203e-12 -3.45232e-10 1.65396e-12 4.32358e-12 -1.99618e-10 9.3048e-13 2.0435e-12 7.73091 5.47488 0.417314 -1.99622e-10 9.29777e-13 2.05449e-12 2.90554 0.965183 0.102902 -1.99616e-10 9.30022e-13 2.05544e-12 10.2786 0.731801 0.0259123 -1.99624e-10 9.33198e-13 2.05884e-12 2.22167 -0.733487 -0.20892 -3.80136e-15 -4.1749e-13 4.16089e-15 -22.2185 10.0459 -2.20517 2.85953 -1.11111 -4.64989 -0.0540728 5.16217 -0.714903 -2.67542e-11 -1.00129e-11 -8.13806e-11 -4.72243e-11 -1.71011e-11 -1.41644e-10 -2.67591e-11 -1.00135e-11 -8.13767e-11 -7.73091 5.47488 -0.417314 -2.67549e-11 -1.00135e-11 -8.13827e-11 -2.90554 0.965183 -0.102902 -2.6758e-11 -1.00137e-11 -8.13803e-11 -10.2786 0.731801 -0.0259123 -2.67465e-11 -1.0011e-11 -8.13874e-11 -2.22167 -0.733487 0.20892 -2.03217e-16 0.0 -3.88251e-19 -0.454973 -4.77884 -0.801379 0.00203524 7.98216 0.106771 -0.417721 -4.14029 0.526306 2.03217e-16 0.0 3.88251e-19 2.87534 1.68942 -0.130391 0.0047129 -2.36584 0.0444521 0.794805 0.0994517 4.86056
-163.483 85.4661 5.99142 12.2389 84.7872 12.2629 -0.203481 1.95942 1.51232 1.79967 0.615512 0.541676 1.52923 -3.23614 1.2756 -1.00856 -1.10378 1.99386 -0.0 0.0 0.0 -0.0 0.0 0.0 5.12922e-15 -8.92121e-13 9.29318e-15 43.6449 25.3692 3.68129 -8.18156 -3.83642 13.545 -0.0015756 2.4037 0.337796 -2.76097e-10 3.93052e-12 -1.40173e-11 -4.77909e-10 6.87815e-12 -2.27047e-11 -2.76098e-10 3.93261e-12 -1.40247e-11 7.73091 5.47488 0.417314 -2.76097e-10 3.93229e-12 -1.40155e-11 2.90554 0.965183 0.102902 -2.76094e-10 3.93289e-12 -1.4011e-11 10.2786 0.731801 0.0259123 -2.76101e-10 3.93661e-12 -1.40066e-11 2.22167 -0.733487 -0.20892 5.13336e-15 -8.9212e-13 9.01675e-15 -44.8126 20.6219 -4.77177 5.68839 -2.26205 -9.57324 0.0310183 10.6115 -1.48948 3.87745e-11 -1.41069e-11 -1.59125e-10 6.49702e-11 -2.39899e-11 -2.76621e-10 3.87713e-11 -1.41089e-11 -1.5912e-10 -7.73091 5.47488 -0.417314 3.87733e-11 -1.41081e-11 -1.59126e-10 -2.90554 0.965183 -0.102902 3.87686e-11 -1.41087e-11 -1.59122e-10 -10.2786 0.731801 -0.0259123 3.87829e-11 -1.4106e-11 -1.59128e-10 -2.22167 -0.733487 0.20892 -2.03217e-16 0.0 -3.88251e-19 -2.95028 -2.15611 -1.44308 -0.000138749 8.40274 0.10647 -0.238949 -8.16748 1.0358 2.03217e-16 0.0 3.88251e-19 4.90314 5.51076 -0.261261 -0.000113346 -2.6685 0.0132075 1.85412 -3.95392 10.159
-163.485 85.4628 5.9793 12.6696 84.8034 12.703 -1.21508 2.85841 2.18024 2.37981 0.895521 0.746979 2.27841 -4.72003 1.86466 -1.44676 -1.60647 2.91033 -0.0 0.0 0.0 -0.0 0.0 0.0 1.23911e-14 -1.25251e-12 1.29707e-14 62.2945 36.9112 6.07102 -11.3313 -5.41611 19.7993 -0.0117898 3.50574 0.493166 -3.67159e-10 2.44864e-12 6.32783e-12 -6.35523e-10 4.36395e-12 1.32634e-11 -3.67162e-10 2.45112e-12 6.32135e-12 7.73091 5.47488 0.417314 -3.67159e-10 2.4512e-12 6.32885e-12 2.90554 0.965183 0.102902 -3.67159e-10 2.45193e-12 6.33649e-12 10.2786 0.731801 0.0259123 -3.67164e-10 2.45609e-12 6.3419e-12 2.22167 -0.733487 -0.20892 1.2349e-14 -1.25251e-12 1.26815e-14 -64.0384 29.9449 -7.52302 8.04277 -3.24562 -13.9699 0.236518 15.4767 -2.21642 1.51378e-10 -3.03925e-11 -2.43995e-10 2.58325e-10 -5.19139e-11 -4.24688e-10 1.51377e-10 -3.03958e-11 -2.4399e-10 -7.73091 5.47488 -0.417314 1.51377e-10 -3.03942e-11 -2.43996e-10 -2.90554 0.965183 -0.102902 1.51371e-10 -3.03951e-11 -2.43992e-10 -10.2786 0.731801 -0.0259123 1.51388e-10 -3.03924e-11 -2.43997e-10 -2.22167 -0.733487 0.20892 -2.03217e-16 0.0 -3.88251e-19 -5.12555 0.184357 -2.01484 -0.00212393 8.7759 0.106197 -0.0180345 -11.7561 1.50166 2.03217e-16 0.0 3.88251e-19 6.72291 8.92031 -0.397551 -0.00472795 -2.94031 -0.0148094 3.43738 -7.43806 14.9835
-163.479 85.4667 5.95607 13.8102 84.7942 13.8251 -1.93382 3.48868 2.63704 2.79157 1.0916 0.887236 2.81869 -5.76056 2.28123 -1.74858 -1.94844 3.55681 -0.0 0.0 0.0 -0.0 0.0 0.0 1.53468e-14 -1.32729e-12 1.36664e-14 74.4615 44.8887 8.36557 -13.3163 -6.40387 24.1813 -0.0224702 4.2753 0.601984 -4.94686e-10 -1.02414e-11 1.17709e-10 -8.55477e-10 -1.74962e-11 2.06723e-10 -4.9469e-10 -1.02394e-11 1.17703e-10 7.73091 5.47488 0.417314 -4.94685e-10 -1.02389e-11 1.17709e-10 2.90554 0.965183 0.102902 -4.94687e-10 -1.02386e-11 1.17719e-10 10.2786 0.731801 0.0259123 -4.94692e-10 -1.02342e-11 1.17725e-10 2.22167 -0.733487 -0.20892 1.52671e-14 -1.32728e-12 1.33683e-14 -76.7822 36.3165 -9.88296 9.58771 -3.89457 -17.0306 0.458693 18.8911 -2.75662 3.8167e-10 -7.71571e-11 -3.46684e-10 6.5458e-10 -1.32426e-10 -6.0548e-10 3.8167e-10 -7.7161e-11 -3.46677e-10 -7.73091 5.47488 -0.417314 3.81668e-10 -7.7159e-11 -3.46684e-10 -2.90554 0.965183 -0.102902 3.81662e-10 -7.71601e-11 -3.46679e-10 -10.2786 0.731801 -0.0259123 3.8168e-10 -7.71575e-11 -3.46684e-10 -2.22167 -0.733487 0.20892 -2.03217e-16 0.0 -3.88251e-19 -6.61216 1.82097 -2.4121 -0.00364533 9.03052 0.105981 0.170454 -14.2516 1.83267 2.03217e-16 0.0 3.88251e-19 7.9926 11.3005 -0.54339 -0.00819235 -3.13502 -0.0347305 4.91175 -9.76659 18.4663
-163.479 85.4691 5.96775 13.5513 84.7369 13.5702 -2.21781 3.74682 2.79179 2.97128 1.16838 0.93505 3.03247 -6.18358 2.45328 -1.87582 -2.06161 3.8268 -0.0 0.0 0.0 -0.0 0.0 0.0 1.07285e-14 -8.76591e-13 8.84242e-15 78.9309 48.0073 9.49561 -14.0459 -6.76002 25.8976 -0.0274693 4.57819 0.6449 -7.02991e-10 -3.91484e-11 3.88657e-10 -1.21392e-09 -6.73203e-11 6.76404e-10 -7.02993e-10 -3.91486e-11 3.8865e-10 7.73091 5.47488 0.417314 -7.02989e-10 -3.91476e-11 3.88656e-10 2.90554 0.965183 0.102902 -7.02991e-10 -3.91489e-11 3.88666e-10 10.2786 0.731801 0.0259123 -7.02998e-10 -3.91446e-11 3.88673e-10 2.22167 -0.733487 -0.20892 1.06198e-14 -8.76589e-13 8.53842e-15 -81.614 38.6881 -10.9515 10.1579 -4.13085 -18.2016 0.568787 20.3008 -2.98847 8.29344e-10 -1.69208e-10 -4.94965e-10 1.42541e-09 -2.90955e-10 -8.68627e-10 8.29344e-10 -1.69212e-10 -4.94957e-10 -7.73091 5.47488 -0.417314 8.29342e-10 -1.6921e-10 -4.94966e-10 -2.90554 0.965183 -0.102902 8.29336e-10 -1.69211e-10 -4.94961e-10 -10.2786 0.731801 -0.0259123 8.29354e-10 -1.69208e-10 -4.94966e-10 -2.22167 -0.733487 0.20892 -2.03217e-16 0.0 -3.88251e-19 -7.18292 2.47786 -2.56827 -0.0045498 9.11811 0.105851 0.249791 -15.2199 1.95568 2.03217e-16 0.0 3.88251e-19 8.47942 12.2391 -0.701782 -0.00976256 -3.21734 -0.0435138 5.60952 -10.6883 19.942
-163.481 85.4697 5.97666 13.202 84.7395 13.2301 -2.18629 3.73935 2.73058 2.98565 1.16005 0.916882 3.00543 -6.16588 2.44954 -1.8823 -2.01196 3.82758 -0.0 0.0 0.0 -0.0 0.0 0.0 7.7397e-16 -5.65398e-14 1.39771e-16 78.3921 47.704 9.37961 -13.9607 -6.72107 25.6983 -0.0269307 4.54783 0.640594 -9.67578e-10 -7.96139e-11 7.72053e-10 -1.66883e-09 -1.37077e-10 1.34073e-09 -9.67577e-10 -7.96176e-11 7.72044e-10 7.73091 5.47488 0.417314 -9.67575e-10 -7.9616e-11 7.72049e-10 2.90554 0.965183 0.102902 -9.67577e-10 -7.96196e-11 7.72058e-10 10.2786 0.731801 0.0259123 -9.67587e-10 -7.96156e-11 7.72067e-10 2.22167 -0.733487 -0.20892 6.42407e-16 -5.6538e-14 -1.67724e-16 -81.1377 38.2566 -10.8424 10.0679 -4.08885 -18.0199 0.563868 20.2798 -2.98423 1.42979e-09 -2.93482e-10 -6.74829e-10 2.45948e-09 -5.05002e-10 -1.18886e-09 1.42979e-09 -2.93485e-10 -6.7482e-10 -7.73091 5.47488 -0.417314 1.42978e-09 -2.93483e-10 -6.74833e-10 -2.90554 0.965183 -0.102902 1.42978e-09 -2.93483e-10 -6.74826e-10 -10.2786 0.731801 -0.0259123 1.4298e-09 -2.93482e-10 -6.74832e-10 -2.22167 -0.733487 0.20892 -2.03217e-16 0.0 -3.88251e-19 -7.11104 2.43527 -2.55067 -0.00501329 9.08645 0.105781 0.236103 -15.098 1.9249 2.03217e-16 0.0 3.88251e-19 8.40024 12.1479 -0.867299 -0.00991156 -3.21958 -0.0443276 5.60367 -10.669 19.946
-163.479 85.4699 5.96297 13.515 84.8259 13.5264 -2.03271 3.62101 2.59083 2.93136 1.1206 0.874447 2.8848 -5.96916 2.37432 -1.84152 -1.90518 3.71719 -0.0 0.0 0.0 -0.0 0.0 0.0 -8.84305e-15 7.10259e-13 -7.96187e-15 75.8553 46.0212 8.76581 -13.5486 -6.52284 24.7311 -0.0241961 4.3862 0.617688 -1.20712e-09 -1.23862e-10 1.14904e-09 -2.08041e-09 -2.13399e-10 1.99374e-09 -1.20711e-09 -1.23869e-10 1.14903e-09 7.73091 5.47488 0.417314 -1.20711e-09 -1.23867e-10 1.14904e-09 2.90554 0.965183 0.102902 -1.20711e-09 -1.23872e-10 1.14904e-09 10.2786 0.731801 0.0259123 -1.20713e-09 -1.23869e-10 1.14905e-09 2.22167 -0.733487 -0.20892 -8.98916e-15 7.10261e-13 -8.2682e-15 -78.5212 36.7386 -10.2681 9.71879 -3.93849 -17.3079 0.509952 19.6551 -2.87995 2.00714e-09 -4.26459e-10 -8.34289e-10 3.45403e-09 -7.34224e-10 -1.47346e-09 2.00714e-09 -4.26461e-10 -8.34278e-10 -7.73091 5.47488 -0.417314 2.00714e-09 -4.2646e-10 -8.34295e-10 -2.90554 0.965183 -0.102902 2.00714e-09 -4.2646e-10 -8.34288e-10 -10.2786 0.731801 -0.0259123 2.00715e-09 -4.26459e-10 -8.34294e-10 -2.22167 -0.733487 0.20892 -2.03217e-16 0.0 -3.88251e-19 -6.78394 2.1064 -2.45336 -0.00525471 9.00879 0.105721 0.185666 -14.5383 1.83441 2.03217e-16 0.0 3.88251e-19 8.08774 11.6459 -1.03082 -0.00949928 -3.1969 -0.0416164 5.30806 -10.2671 19.3644
-163.473 85.473 5.95134 13.9592 84.8534 13.9469 -1.95049 3.54659 2.50999 2.90512 1.10405 0.849459 2.81863 -5.85508 2.33207 -1.82699 -1.84698 3.65363 -0.0 0.0 0.0 -0.0 0.0 0.0 -1.24486e-14 1.0012e-12 -1.09829e-14 74.3004 44.9988 8.4286 -13.294 -6.39861 24.144 -0.0226813 4.29531 0.604811 -1.34027e-09 -1.64117e-10 1.40077e-09 -2.30883e-09 -2.8292e-10 2.42948e-09 -1.34027e-09 -1.64125e-10 1.40075e-09 7.73091 5.47488 0.417314 -1.34027e-09 -1.64122e-10 1.40076e-09 2.90554 0.965183 0.102902 -1.34027e-09 -1.64129e-10 1.40077e-09 10.2786 0.731801 0.0259123 -1.34028e-09 -1.64126e-10 1.40078e-09 2.22167 -0.733487 -0.20892 -1.25991e-14 1.0012e-12 -1.1281e-14 -76.9243 35.8482 -9.94509 9.51129 -3.84963 -16.8881 0.477348 19.2535 -2.81371 2.38557e-09 -5.44622e-10 -9.21356e-10 4.10629e-09 -9.3828e-10 -1.62971e-09 2.38557e-09 -5.44623e-10 -9.21343e-10 -7.73091 5.47488 -0.417314 2.38557e-09 -5.44622e-10 -9.21362e-10 -2.90554 0.965183 -0.102902 2.38556e-09 -5.44622e-10 -9.21355e-10 -10.2786 0.731801 -0.0259123 2.38558e-09 -5.44621e-10 -9.21362e-10 -2.22167 -0.733487 0.20892 -2.03217e-16 0.0 -3.88251e-19 -6.58819 1.90444 -2.37051 -0.00549267 8.95839 0.10562 0.154631 -14.1934 1.77831 2.03217e-16 0.0 3.88251e-19 7.88194 11.3518 -1.1848 -0.00939661 -3.20447 -0.0398251 5.1541 -10.0327 19.0876
